<?xml version="1.0" encoding="UTF-8"?>
<svg id="Ebene_1" data-name="Ebene 1" xmlns="http://www.w3.org/2000/svg" viewBox="0 0 220.48 108.54">
  <defs>
    <style>
      .cls-1 {
        fill: none;
      }

      .cls-2 {
        fill: #fff;
      }

      .cls-3 {
        fill: #cdcccc;
      }
    </style>
  </defs>
  <path class="cls-2" d="m106.78,84.81h-3.91c7.07,8.29,17.59,13.56,29.35,13.56s22.28-5.27,29.35-13.56h-3.91c-6.47,6.59-15.48,10.67-25.45,10.67s-18.97-4.09-25.44-10.67m63.97-26.93c-1-20.41-17.86-36.65-38.52-36.65-14.42,0-26.99,7.92-33.61,19.65h3.36c6.31-10.07,17.5-16.77,30.25-16.77,19.06,0,34.63,14.95,35.63,33.76h2.89Z"/>
  <path class="cls-2" d="m199.86,70.91c.18-1.61,1.16-3.74,3.45-3.74,2.52,0,3.13,2.28,3.1,3.74h-6.56Zm8.65,1.68c.05-.27.08-.62.08-1.1,0-2.34-1.06-5.97-5.09-5.97-3.61,0-5.82,3-5.82,6.85s2.29,6.41,6.09,6.41c1.97,0,3.34-.44,4.13-.81l-.39-1.64c-.83.35-1.82.65-3.43.65-2.26,0-4.19-1.29-4.23-4.41l8.68.02Zm-16.51.6c0,.36-.03.69-.11.99-.41,1.73-1.78,2.77-3.29,2.77-2.43,0-3.68-2.14-3.68-4.72,0-2.79,1.39-4.88,3.72-4.88,1.69,0,2.91,1.2,3.26,2.66.07.3.09.69.09.99v2.2Zm0-13.3v7.58h-.05c-.55-1.01-1.83-1.93-3.73-1.93-3.01,0-5.58,2.58-5.56,6.82,0,3.85,2.31,6.45,5.31,6.45,2.02,0,3.51-1.07,4.2-2.48h.06l.11,2.19h2c-.06-.88-.1-2.14-.1-3.27v-15.36h-2.24Zm-22.9,18.63h2.24v-7.65c0-.38.06-.79.15-1.07.4-1.29,1.56-2.37,3.03-2.37,2.11,0,2.86,1.72,2.86,3.77v7.32h2.24v-7.57c0-4.36-2.66-5.41-4.36-5.41-2.04,0-3.48,1.18-4.09,2.38h-.06l-.12-2.09h-1.99c.06,1.05.1,2.1.1,3.43v9.26Zm-4.27-12.69h-2.24v7.77c0,.44-.09.85-.2,1.18-.42,1.04-1.47,2.12-2.98,2.12-2.03,0-2.77-1.65-2.77-4.06v-7.01h-2.24v7.42c0,4.45,2.33,5.56,4.26,5.56,2.22,0,3.53-1.34,4.1-2.36h.06l.12,2.08h1.99c-.06-1-.1-2.14-.1-3.47v-9.22Zm-19.27,12.69h2.24v-6.78c0-.38.03-.75.09-1.08.31-1.73,1.43-2.95,3.01-2.95.31,0,.54.02.79.07v-2.17c-.21-.05-.38-.06-.63-.06-1.5,0-2.87,1.08-3.45,2.78h-.08l-.09-2.49h-1.97c.07,1.18.1,2.45.1,3.95l-.03,8.74Z"/>
  <path class="cls-3" d="m133.46,77.91c.92.52,2.29.89,3.79.89,3.29,0,5.06-1.68,5.06-4.01-.01-1.88-1.06-3.07-3.32-3.89-1.57-.59-2.17-.98-2.17-1.79s.62-1.35,1.74-1.35,2.11.43,2.63.73l.62-2.27c-.73-.41-1.93-.76-3.3-.76-2.91,0-4.73,1.75-4.73,4-.01,1.51,1,2.87,3.44,3.73,1.53.56,2.05,1,2.05,1.86s-.62,1.43-2,1.43c-1.13,0-2.48-.49-3.18-.93l-.63,2.35Zm-8.42-14.53v2.38h-1.78v2.41h1.78v6.01c0,1.67.31,2.85.98,3.58.59.65,1.55,1.05,2.71,1.05.99,0,1.82-.15,2.29-.33l-.06-2.46c-.36.1-.65.14-1.22.14-1.2,0-1.61-.79-1.61-2.36v-5.64h3v-2.41h-3v-3.28l-3.09.9Zm-6.6,15.15v-10.37h2.7v-2.41h-2.72v-.67c0-1.56.52-2.91,2.08-2.91.58,0,1,.1,1.34.23l.22-2.48c-.49-.17-1.16-.32-2-.32-1.09,0-2.34.33-3.26,1.23-1.08,1.05-1.51,2.71-1.51,4.37v.54h-1.69v2.41h1.69v10.37h3.15Zm-10.66-4.49c0,.22-.02.48-.09.7-.3.94-1.21,1.77-2.46,1.77-1,0-1.8-.59-1.8-1.84,0-1.95,2.13-2.43,4.35-2.4v1.77Zm3.06-3.19c0-2.8-1.14-5.39-5.14-5.39-1.96,0-3.57.55-4.51,1.13l.62,2.1c.85-.55,2.13-.95,3.35-.95,2.21,0,2.53,1.39,2.53,2.23v.21c-4.59-.02-7.39,1.61-7.39,4.84,0,1.95,1.4,3.8,3.93,3.8,1.61,0,2.92-.7,3.67-1.71h.08l.22,1.42h2.84c-.14-.79-.19-1.92-.19-3.08v-4.6Zm-24.78,7.68h3.15v-7.64c0-.35.03-.7.14-.97.35-.96,1.21-1.81,2.44-1.81,1.74,0,2.39,1.41,2.39,3.26v7.17h3.15v-7.52c0-4.1-2.24-5.54-4.35-5.54-.78,0-1.53.21-2.15.57-.64.34-1.17.86-1.57,1.46h-.05v-7.6h-3.15v18.63Zm-3.25-2.78c-.61.26-1.39.5-2.47.5-2.15,0-3.82-1.5-3.82-4.12-.01-2.34,1.41-4.14,3.81-4.14,1.12,0,1.88.25,2.38.5l.56-2.43c-.72-.32-1.88-.58-3.04-.58-4.38,0-6.93,2.97-6.93,6.8s2.52,6.53,6.42,6.53c1.56,0,2.86-.34,3.52-.66l-.42-2.4Zm-20.78,2.16c.92.52,2.29.89,3.79.89,3.29,0,5.06-1.68,5.06-4.01-.01-1.88-1.06-3.07-3.32-3.89-1.57-.59-2.17-.98-2.17-1.79s.62-1.35,1.74-1.35,2.11.43,2.63.73l.62-2.27c-.73-.41-1.93-.76-3.3-.76-2.91,0-4.73,1.75-4.73,4-.01,1.51,1,2.87,3.44,3.73,1.53.56,2.05,1,2.05,1.86s-.62,1.43-2,1.43c-1.13,0-2.48-.49-3.18-.93l-.63,2.35Zm-8.42-14.53v2.38h-1.78v2.41h1.78v6.01c0,1.67.31,2.85.98,3.58.59.65,1.55,1.05,2.71,1.05.99,0,1.82-.15,2.29-.33l-.06-2.46c-.36.1-.65.14-1.22.14-1.2,0-1.61-.79-1.61-2.36v-5.64h3v-2.41h-3v-3.28l-3.09.9Zm-10.4,15.15h3.15v-6.63c0-.35.03-.69.08-.97.28-1.46,1.32-2.44,2.82-2.44.38,0,.65.03.95.09v-3.04c-.25-.06-.43-.07-.74-.07-1.34,0-2.8.92-3.41,2.72h-.09l-.12-2.43h-2.73c.07,1.14.1,2.4.1,4.11l-.03,8.67Zm-5.46-14.75c1.14,0,1.87-.82,1.86-1.84-.01-1.04-.73-1.84-1.85-1.84s-1.86.8-1.86,1.84c0,1.02.72,1.84,1.82,1.84h.03Zm1.58,1.97h-3.15v12.77h3.15v-12.77Zm-19.84,12.77l2-8.32c.51-2.01.85-3.71,1.14-5.6h.05c.22,1.91.53,3.6.97,5.6l1.78,8.33h3.36l4.65-17.69h-3.21l-1.79,7.99c-.45,2.16-.87,4.17-1.17,6.13h-.05c-.26-1.92-.63-3.89-1.04-5.98l-1.71-8.14h-3.32l-1.85,7.99c-.5,2.23-.97,4.35-1.25,6.19h-.06c-.29-1.75-.69-4-1.12-6.15l-1.64-8.03h-3.36l4.21,17.69h3.41Z"/>
  <path class="cls-3" d="m117.03,48.26c.17-.04.5-.08,1.01-.08,1.05,0,1.74.47,1.74,1.47,0,.91-.68,1.51-1.79,1.51h-.96v-2.89Zm-1.62,7.87h1.62v-3.76h.82c.93.02,1.35.41,1.6,1.6.25,1.14.46,1.89.6,2.16h1.67c-.18-.36-.42-1.4-.7-2.55-.22-.89-.6-1.52-1.24-1.77v-.04c.84-.3,1.62-1.11,1.62-2.29,0-.78-.28-1.42-.77-1.84-.6-.52-1.47-.74-2.75-.74-.95,0-1.85.08-2.47.2v9.02Zm-5.24-5.42h-3.36v-2.35h3.56v-1.37h-5.19v9.15h5.39v-1.37h-3.76v-2.68h3.36v-1.36Zm-16.43,5.42h6.74v-1.39h-4.57v-.05l4.5-6.73v-.98h-6.27v1.39h4.16v.04l-4.56,6.79v.93Zm-9.53,0h5.3v-1.4h-3.67v-7.75h-1.63v9.15Zm-9.05-1.19c-1.56,0-2.47-1.54-2.46-3.36,0-1.82.86-3.41,2.48-3.41s2.46,1.63,2.46,3.36c0,1.91-.89,3.42-2.46,3.42h-.01Zm-.04,1.34c2.44,0,4.26-1.75,4.26-4.81,0-2.62-1.53-4.63-4.14-4.63s-4.25,1.99-4.25,4.79,1.6,4.65,4.11,4.65h.01Zm-16-9.3v9.15h1.63v-4.03h3.77v4.03h1.63v-9.15h-1.63v3.67h-3.77v-3.67h-1.63Zm-12.31,0v9.15h1.63v-4.03h3.77v4.03h1.63v-9.15h-1.63v3.67h-3.77v-3.67h-1.63Zm-4.89,7.56c-.43.2-1.12.33-1.78.33-1.96,0-3.11-1.28-3.11-3.29,0-2.2,1.31-3.36,3.13-3.36.73,0,1.32.16,1.74.36l.35-1.33c-.33-.18-1.09-.4-2.16-.4-2.73,0-4.77,1.82-4.77,4.83,0,2.79,1.72,4.61,4.55,4.61,1.08,0,1.93-.22,2.31-.41l-.27-1.32Zm-18.32-7.56v5.24c0,2.88,1.34,4.06,3.4,4.06s3.57-1.25,3.57-4.07v-5.23h-1.63v5.33c0,1.8-.71,2.62-1.88,2.62-1.1,0-1.83-.83-1.83-2.62v-5.33h-1.63Zm-9.33,4.95h.81c1.12,0,2.03.44,2.03,1.5,0,1.13-.94,1.53-1.98,1.53-.38,0-.65,0-.86-.05v-2.98Zm0-3.71c.18-.04.45-.07.93-.07,1.03,0,1.66.39,1.66,1.25,0,.77-.63,1.32-1.76,1.32h-.83v-2.5Zm-1.62,7.88c.42.06,1.1.12,2,.12,1.63,0,2.68-.28,3.31-.84.51-.45.85-1.08.85-1.89,0-1.26-.86-2.02-1.81-2.27v-.04c.97-.36,1.48-1.13,1.48-1.97,0-.78-.37-1.37-.92-1.72-.61-.42-1.36-.58-2.55-.58-.92,0-1.86.09-2.38.2v8.99Z"/>
  <path class="cls-2" d="m149.83,51.78s-4.93-7.25-6.31-13.96c-1.37-6.71-.8-11.97,3.45-17.63,3.83-5.1,9.12-6.07,12.36-6.96,6.15-1.69,8.35-3.05,8.35-3.05,1.17,5.65,4.06,7.18,5.04,15.59.94,8.07-2.5,14.29-7.2,18.01-4.7,3.72-15.7,8-15.7,8"/>
  <rect class="cls-1" x="142.86" y="10.17" width="37.66" height="41.68"/>
  <path class="cls-3" d="m178.19,18.27l-4.95,5.33-.19-5.2s4.31-.02,5.14-.13"/>
  <path class="cls-3" d="m171.13,25.87l-5.64,6.02-.59-13.43s1.38-.34,3.88-.22c0,0,1.81.14,2.12.12l.23,7.51Z"/>
  <path class="cls-3" d="m162.8,18.9l.63,15.2-5.72,6.12-.77-18.51s3.02-2.26,5.87-2.8"/>
  <path class="cls-3" d="m155.63,42.41l-.76-19.1s-3.03,2.56-4.8,7.42c-.93,2.56-1.56,5.94-1.71,7.9-.13,1.72-.31,3.58-.13,6.11.24,3.29.41,5.16.41,5.16l6.98-7.48Z"/>
  <path class="cls-3" d="m165.16,35.41l14.61-.31s-.8,3.62-2.11,5.7l-18.18.69,5.67-6.09Z"/>
  <path class="cls-3" d="m176.28,42.99l-18.89.68-7.57,8.1c2.13.21,8.72.04,15.85-2.04,5.71-1.66,9.46-5.02,10.6-6.74"/>
  <path class="cls-3" d="m179.92,19.64l-5.08,5.42,5.54-.08s-.35-3.41-.46-5.34"/>
  <path class="cls-3" d="m180.48,27.18l-7.64.06-5.66,6.01,12.98-.32s.5-3.54.32-5.75"/>
</svg>